<?xml version="1.0" standalone="no"?>
<!DOCTYPE svg PUBLIC "-//W3C//DTD SVG 1.1//EN" "http://www.w3.org/Graphics/SVG/1.1/DTD/svg11.dtd" >
<svg xmlns="http://www.w3.org/2000/svg" xmlns:xlink="http://www.w3.org/1999/xlink" version="1.1">
<metadata>
Created by FontForge 20170924 at Wed Mar 25 12:03:18 2020
 By www-data
Copyright (c) 2020 by Vladimir Nikolic. All rights reserved.
</metadata>
<defs>
<font id="DianaBook-Regular" horiz-adv-x="571" >
  <font-face 
    font-family="Diana Book"
    font-weight="400"
    font-stretch="normal"
    units-per-em="1000"
    panose-1="0 0 0 0 0 0 0 0 0 0"
    ascent="750"
    descent="-250"
    x-height="666"
    cap-height="664"
    bbox="10 -105 704 682"
    underline-thickness="50"
    underline-position="-100"
    unicode-range="U+001D-007A"
  />
<missing-glyph horiz-adv-x="236" 
 />
    <glyph glyph-name=".notdef" horiz-adv-x="236" 
 />
    <glyph glyph-name="NULL" horiz-adv-x="0" 
 />
    <glyph glyph-name="NULL" horiz-adv-x="0" 
 />
    <glyph glyph-name="nonmarkingreturn" horiz-adv-x="236" 
 />
    <glyph glyph-name="space" unicode=" " horiz-adv-x="236" 
 />
    <glyph glyph-name="E" unicode="E" horiz-adv-x="567" 
d="M467 675q26 0 45.5 -10t19.5 -41q0 -18 -8 -29.5t-22.5 -19t-33.5 -12.5t-41 -9q-30 -6 -63.5 -15t-65 -26.5t-58.5 -46t-43 -74.5q-3 -13 -9 -29q25 4 50 11l50 14q16 5 31.5 9.5t31.5 8.5q20 -8 37.5 -22t27.5 -36q-4 -26 -26 -44.5t-53 -31.5t-65.5 -21t-63.5 -14
l-41 -10q0 -27 10 -44.5t26.5 -28t38 -14.5t46.5 -4q47 0 80.5 13t66.5 29q19 10 38 19t39 16q24 -10 31 -28t7 -41t-14 -41.5t-37 -33t-51.5 -24.5t-56.5 -16.5t-54 -9.5t-43 -3q-95 0 -154.5 41.5t-87.5 134.5v-1q-3 8 -7.5 14t-9.5 12q-9 9 -16.5 20.5t-7.5 34.5
q0 18 5 25.5t16 17.5q7 7 14 20t12.5 29t10.5 33.5t10 34.5l10 36q0 1 -0.5 1t-0.5 1v-2q-5 11 -8 22t-3 25q0 10 8.5 26t20.5 31.5t25.5 27t24.5 11.5q10 0 20 3.5t19 7.5q2 3 4.5 3.5t5.5 1.5q4 0 5 1q118 47 245 47h12z" />
    <glyph glyph-name="F" unicode="F" horiz-adv-x="494" 
d="M355 670q18 0 38.5 -3t38.5 -11.5t30 -24t12 -39.5l-11 -23q-18 -11 -48.5 -16t-62.5 -10q-29 -4 -60 -9.5t-59.5 -14.5t-51 -23t-33.5 -36q-2 -4 -3.5 -13.5t-2 -20.5t-0.5 -22.5v-18.5q16 5 34.5 11.5t35.5 12.5q42 15 86 29t89 14q20 0 37.5 -13.5t17.5 -36.5
q0 -13 -10.5 -24t-25.5 -20t-32.5 -16t-31.5 -11l-21 -7q-28 -9 -56 -21t-49 -23q-23 -11 -45 -22t-37 -16q0 -16 0.5 -32.5t1.5 -32.5q1 -17 1.5 -33.5t0.5 -33.5q0 -9 -1.5 -23.5t-6 -28.5t-13 -24t-22.5 -10q-26 0 -40.5 23t-21 53.5t-8 61.5t-1.5 48v163q0 7 0.5 28
t2.5 47.5t5.5 55.5t9 52.5t14 38t19.5 13.5q7 0 13 -2l14 -3q23 0 50.5 9t58.5 21q35 14 72 25.5t72 11.5z" />
    <glyph glyph-name="G" unicode="G" 
d="M402 676q57 0 93.5 -20t58.5 -77l-11 -30l-33 -20q-7 1 -13 3q-5 2 -11 3t-10 3q-14 5 -28.5 8.5t-28.5 3.5q-24 0 -51.5 -6.5t-54 -17.5t-51 -24.5t-42.5 -28.5q-21 -17 -36 -40.5t-24.5 -51t-14.5 -56t-5 -54.5t10.5 -46t28.5 -34.5t41 -22t47 -7.5q30 0 58 12t46 37
q-14 0 -39.5 8t-45.5 14l-13 4q-17 15 -28 34t-11 43q0 22 14 33.5t34 16.5t42.5 6t39.5 1h10q34 0 62.5 -4t49.5 -16.5t33 -37t12 -65.5q0 -33 -4 -65t-9 -64t-9 -63t-4 -63q0 -11 -1.5 -27.5t-7 -32t-15 -26.5t-24.5 -11q-22 0 -35.5 19.5t-21.5 46t-11 54t-3 44.5
q-26 -12 -51.5 -20t-55.5 -8q-51 0 -98.5 21.5t-83.5 57.5t-57.5 83.5t-21.5 99.5q0 85 28.5 155.5t79.5 121t121.5 78.5t154.5 28z" />
    <glyph glyph-name="H" unicode="H" horiz-adv-x="524" 
d="M111 671q19 0 35 -9t27 -23.5t17.5 -32.5t6.5 -35q0 -24 -2 -49t-5 -48q-2 -19 -4 -36t-3 -37q18 2 38.5 8t40.5 11t41 11.5t44 8.5q0 20 1 54t6 68.5t15.5 63t29.5 37.5q11 -4 25.5 -14.5t27.5 -24t22 -28t9 -27.5q0 -17 -1.5 -32.5t-3.5 -30.5q-2 -16 -3.5 -31
t-1.5 -29v-2q14 -8 23.5 -21t9.5 -30t-7 -26t-15 -16q-5 -5 -10.5 -9.5t-7.5 -10.5q-7 -17 -9 -45t-4 -60q-2 -35 -4.5 -71.5t-10.5 -67t-23 -52.5t-41 -27l-17 17q-10 8 -16 16.5t-6 28.5q0 60 2.5 116.5t5.5 116.5q-3 0 -6.5 -1t-6.5 -1q-36 -5 -77 -13t-76 -22h-1l-9 -5
q0 -20 -2 -56.5t-10 -72.5t-24.5 -63t-45.5 -27q-23 0 -35.5 16.5t-12.5 39.5q0 19 1 37.5t3 37.5q3 36 3 73q0 9 -1 18t-3 19q-3 19 -3 39q0 14 3 27.5t8 24.5q3 8 6 17.5t5 17.5q2 18 3.5 37.5t1.5 37.5q0 15 -0.5 29.5t-1.5 28.5q-1 16 -1.5 31.5t-0.5 30.5
q0 26 11.5 46.5t39.5 20.5z" />
    <glyph glyph-name="I" unicode="I" horiz-adv-x="269" 
d="M158 664q15 0 30.5 -8t28 -20.5t21 -28t8.5 -30.5q0 -8 -4 -24t-9.5 -35.5t-12.5 -40.5t-13 -38l-13 -38v1q-19 -63 -33 -128.5t-19 -129.5q-3 -33 -10 -48.5t-16 -27.5q-6 -8 -11 -17.5t-11 -28.5l-30 -1q-7 0 -10 1t-5 1.5t-5 -0.5q-17 23 -19.5 52t-2.5 53
q0 74 13 141.5t30 135.5q11 46 21.5 91.5t15.5 93.5q2 13 4.5 26.5t8 24t15.5 17t28 6.5z" />
    <glyph glyph-name="J" unicode="J" horiz-adv-x="520" 
d="M408 676q15 0 29.5 -8.5t26 -21.5t19 -28.5t7.5 -30.5q0 -23 -4 -49t-8 -49l-7 -36q-7 -43 -18 -92t-28 -97t-40.5 -93t-55.5 -79t-73.5 -54.5t-94.5 -20.5q-21 0 -47 6t-48.5 19t-37.5 32t-15 45q0 20 16 28t31 8q16 -13 34.5 -16.5t37.5 -3.5q42 0 75.5 20t58.5 53.5
t42 75.5t27.5 86t15.5 86t5 74q0 8 -7 8.5t-15 0.5h-5q-30 0 -62.5 -8.5t-63.5 -19.5q-30 -10 -58 -18t-54 -8q-15 0 -28.5 7t-23 19t-15 26.5t-5.5 29.5q0 26 14 46q6 6 33 13t65 14t81.5 13.5t83.5 11.5t70.5 8t41.5 3z" />
    <glyph glyph-name="K" unicode="K" horiz-adv-x="564" 
d="M142 673q22 0 39 -10.5t28 -27t17 -37t6 -39.5q0 -26 -5 -50.5t-11 -50.5l-7 -24.5t-5 -24.5q45 39 91 86.5t77 94.5q5 7 15 19.5t22 25t24 21.5t21 9q16 0 30 -9.5t24.5 -24t16.5 -31.5t6 -31q0 -13 -15 -34.5t-38 -48t-51 -54.5l-55 -55q-28 -27 -48.5 -47.5
t-29.5 -31.5q15 -13 39.5 -28t51.5 -29q29 -17 59 -34.5t54 -36t39.5 -37.5t15.5 -37q0 -23 -13.5 -39t-36.5 -16q-14 0 -38.5 10.5t-54.5 26t-61 34t-57 33.5q-12 8 -25.5 16t-24.5 14h1q-13 5 -28.5 15t-28.5 19q-4 3 -5 4t-6 4v-11q0 -20 -4 -53t-14 -65t-26.5 -55
t-41.5 -23q-26 0 -43.5 17.5t-17.5 43.5q0 54 8.5 109.5t19.5 109.5q4 18 7 35.5t6 34.5q9 52 16.5 105.5t10.5 105.5v6q1 11 2.5 25.5t5 28.5t10 25t17.5 15v-1q2 1 5.5 2t5.5 1z" />
    <glyph glyph-name="L" unicode="L" horiz-adv-x="464" 
d="M147 681q16 0 29.5 -9.5t23.5 -23.5t15.5 -30.5t5.5 -30.5q0 -13 -4 -47t-9 -73.5t-10 -75.5t-7 -52q-1 -2 -5 -20.5t-7 -34.5q-7 -29 -13 -59.5t-7 -45.5q39 4 79.5 10.5t80.5 14.5l46 8l-1 -2q3 2 8.5 2.5t6.5 0.5q9 0 17.5 -0.5t17.5 -1.5q6 -1 12 -1.5t12 -0.5
q5 -8 8 -17.5t3 -17.5q0 -19 -23.5 -36t-58.5 -31.5t-76 -26.5t-75 -21q-28 -8 -50.5 -13.5t-33.5 -10.5q-24 -11 -45 -11q-18 0 -32 7.5t-23 20t-13.5 28.5t-4.5 33t6 34t14 33l11 25q6 16 11.5 47t10 69t8 80t6 81.5t3.5 72.5t1 53q0 8 1.5 12t3.5 9l3 8q7 17 20.5 30.5
t33.5 13.5z" />
    <glyph glyph-name="M" unicode="M" horiz-adv-x="601" 
d="M153 667q32 -8 50 -16.5t27 -21.5t11.5 -33.5t2.5 -51.5q0 -10 7 -33.5t17.5 -48t23 -43.5t23.5 -19q7 0 17 11.5t22 30t25.5 42.5t27.5 49t28 48.5t26 42t22 30t17 11.5q18 0 33 -8.5t26 -22t17.5 -30t6.5 -33.5q0 -26 -6 -51t-14 -51q-5 -16 -9 -32t-7 -32
q-12 -72 -23 -146t-13 -146q0 -14 -1 -36.5t-8 -34.5q-8 -13 -21 -19t-27 -6q-21 0 -33 19.5t-17 46t-6 53.5t-1 41q0 30 2 59.5t7 58.5q-14 -14 -31 -22.5t-38 -8.5q-19 0 -38 8.5t-36.5 22t-32.5 29.5t-27 31q-4 -17 -7.5 -45t-8.5 -58q-5 -32 -10 -68.5t-11 -68.5
t-12 -55t-11 -29q-12 -14 -21.5 -16t-23.5 -2t-28 6t-25 16t-17.5 24t-6.5 29q0 17 5.5 38.5t11.5 43.5q8 26 11 45q14 77 27 161t13 161l-1 48q0 31 8.5 40.5t18.5 13.5q3 2 8 5.5t7 7.5l20 14z" />
    <glyph glyph-name="N" unicode="N" 
d="M469 678q13 0 26.5 -7.5t24.5 -18.5t18.5 -25t7.5 -27q0 -26 -11 -59l-19 -57q-6 -18 -14.5 -53t-16.5 -73q-11 -53 -24.5 -113t-31 -110t-38.5 -83t-48 -33q-39 0 -67.5 19.5t-49 49.5t-34.5 65t-24 67l-2 7v-13q-1 -26 -3.5 -59t-9 -62t-19 -49.5t-33.5 -20.5
q-40 0 -62 28t-22 66q0 52 11 105t23 103q13 51 24 101t11 100q0 6 -1 11.5t-2 11.5q-3 12 -3 26q0 15 6 31t16.5 29.5t24.5 22.5t31 9q29 0 46 -12t25 -31.5t10.5 -43t2.5 -45.5q0 -39 3.5 -85.5t11 -94t20.5 -92.5t33 -80q2 2 3 4t3 4h-1q10 15 18 41t15.5 58t14.5 68
t13 73q6 35 12 69.5t12.5 64.5t14 53.5t16.5 36.5q8 10 17.5 16.5t20.5 6.5z" />
    <glyph glyph-name="O" unicode="O" horiz-adv-x="590" 
d="M341 482q-18 0 -34 12t-23 30q-30 -19 -56 -48t-46 -63.5t-31.5 -72t-11.5 -72.5q0 -24 8.5 -48t23.5 -43.5t36.5 -31.5t47.5 -12q16 0 29.5 6.5t27.5 15.5q10 7 20.5 13t21.5 8l-1 -1q31 27 50 52.5t29.5 53.5t13.5 59.5t3 70.5v19.5t-2.5 28t-7 25t-13.5 10.5
q-10 0 -20 -2l-20 -4l-22 -4t-23 -2zM303 675q38 0 57.5 -10t36.5 -23q9 -7 20.5 -14t25.5 -12q39 -15 63 -39t36.5 -54t16.5 -65.5t4 -73.5q0 -47 -7 -94t-24 -89.5t-46 -77.5t-73 -59h1l-31 -20q-27 -17 -53 -28.5t-60 -11.5q-59 0 -105 26t-78.5 67.5t-49.5 94t-17 106.5
q0 55 17 109.5t47.5 103.5t72.5 88.5t92 63.5q12 5 25.5 8.5t28.5 3.5z" />
    <glyph glyph-name="P" unicode="P" horiz-adv-x="535" 
d="M292 543q-30 0 -50.5 -11t-33 -29t-19 -41.5t-8.5 -48.5q18 7 52 21t68 31.5t59 35t25 31.5q0 4 -12.5 6t-28.5 3t-31.5 1.5t-20.5 0.5zM316 680q33 0 68.5 -11t65.5 -31t49.5 -50t19.5 -67q0 -38 -18 -69t-47.5 -56t-67 -44t-76.5 -32t-77 -20.5t-67 -8.5l-7 -56
q-3 -32 -8 -70t-13 -70t-21.5 -53.5t-33.5 -21.5t-33 9.5t-20.5 24t-10.5 32t-3 34.5q0 54 8 105t17 102q8 43 15 84t10 82q0 4 0.5 7.5t0.5 8.5q1 18 3.5 40t8.5 42t17 36t29 22l37 9q38 8 74 15t80 7z" />
    <glyph glyph-name="Q" unicode="Q" horiz-adv-x="544" 
d="M365 516v9l8 1l1 -8zM240 503q-3 4 -4 7.5t-2 7.5l6 1q0 -1 1 -1.5t1 -1.5l-2 5l19 -6zM294 178l-6 -34l-13 20zM417 374q0 10 -3.5 32t-10.5 44.5t-16 41t-20 23.5l-13 -5q-6 -2 -12 -3.5t-11 -3.5l-11 -4q-11 -5 -24 -9.5t-25 -4.5q-9 0 -17.5 4.5t-13.5 12.5
q-5 -4 -8 -7.5t-6 -7.5q-6 -8 -11.5 -14t-10.5 -10v1q-39 -44 -55 -87t-16 -102q0 -15 3.5 -39.5t11.5 -47t22 -39t34 -16.5q17 0 37 9.5t34 21.5q-8 15 -16 35t-8 38q0 21 11 37t34 16q26 0 44 -16.5t28 -40.5q4 6 7.5 10.5t6.5 10.5q9 15 15.5 27t11 25t6.5 29t2 39z
M298 663q45 0 86 -33t72 -80.5t49 -100t18 -91.5q0 -36 -6.5 -63.5t-18 -51t-27.5 -45t-34 -45.5l-23 -31q2 -8 13 -19.5t25 -25.5q20 -21 39.5 -44t19.5 -46q0 -10 -4 -20t-9 -19l-20 -1q-17 0 -34.5 9.5t-34 23.5t-31.5 30.5t-27 31.5q-5 5 -8 9.5t-8 9.5l-23 -11
q-23 -13 -43.5 -20.5t-53.5 -7.5q-44 0 -80 26t-61 64.5t-38.5 84t-13.5 84.5q0 28 1.5 56t6.5 55q7 37 35.5 84t67 88.5t82.5 70t83 28.5z" />
    <glyph glyph-name="R" unicode="R" horiz-adv-x="527" 
d="M186 309l-5 -2l-6 19l4 5l3 -4q2 0 2.5 -1.5t2.5 -3.5zM317 518q-21 0 -37.5 -14t-28.5 -34t-20.5 -42t-14.5 -38l-7 -16q-6 -14 -10.5 -25t-9.5 -25q21 4 52.5 20.5t61 38t50 44t20.5 40.5q0 20 -18 35.5t-38 15.5zM284 671q37 0 76 -20.5t70.5 -52t51.5 -71t20 -76.5
q0 -11 -2.5 -20.5t-5.5 -17.5q-15 -40 -30.5 -66t-35 -45t-43.5 -34.5t-57 -34.5l-5 -3q9 -5 23.5 -12t33.5 -15q28 -13 59.5 -29t58 -32.5t44 -33.5t17.5 -33q0 -25 -19.5 -37t-40.5 -12q-29 0 -75.5 16t-96 39.5t-95 49t-72.5 43.5q0 -16 -2.5 -41t-10 -49t-20.5 -41
t-35 -17q-67 0 -67 69q0 33 6.5 76t16.5 89t21.5 92t22.5 85q2 11 5.5 22t5.5 22q1 7 6.5 23t12.5 36t15.5 41.5t17.5 39t17.5 29t14.5 11.5l18 -3q3 -2 7.5 -2.5t7.5 -0.5l12 3q12 5 25 9t27 4z" />
    <glyph glyph-name="S" unicode="S" horiz-adv-x="484" 
d="M311 677q19 0 41.5 -7t41.5 -20t32 -31.5t13 -40.5q0 -26 -16 -50q-7 -4 -14.5 -7t-16.5 -3q-16 0 -26.5 5t-19.5 10q-5 3 -10.5 5.5t-10.5 2.5q-8 0 -24.5 -4.5t-33 -11.5t-29.5 -16t-13 -17q0 -7 16.5 -15t42.5 -19q27 -11 59 -25.5t59.5 -37t46 -54.5t18.5 -78
q0 -53 -21.5 -97.5t-57.5 -76.5t-82.5 -50.5t-96.5 -18.5q-25 0 -59 10t-65 28.5t-53 43.5t-22 55q0 23 10.5 37.5t36.5 14.5q14 -7 25.5 -16t22.5 -18q17 -13 36 -24.5t46 -11.5q22 0 49.5 9.5t50.5 26t39 38.5t16 46q0 13 -8 23.5t-21 20.5t-30 19t-36 18q-26 13 -53 28
t-49 34.5t-36 45t-14 59.5q0 16 2.5 32t10.5 30t34.5 32.5t58.5 35.5t63 28.5t47 11.5z" />
    <glyph glyph-name="T" unicode="T" horiz-adv-x="514" 
d="M502 587q-12 -20 -29.5 -30t-37 -15t-40 -5.5t-39.5 -0.5h-5q-8 1 -19 1t-11 -4q0 -29 1 -57.5t3 -57.5q2 -26 3 -56.5t1 -56.5q0 -61 -10 -128.5t-35 -121.5q-3 -6 -11 -13.5t-18 -15t-19 -12.5t-15 -5q-14 0 -21.5 5t-11.5 13.5t-4.5 18.5t-0.5 21q0 34 3.5 67.5
t8.5 66.5t8.5 66.5t3.5 66.5q0 9 0.5 19t0.5 21t0.5 22t0.5 22q0 23 -1.5 45.5t-5.5 40.5q-12 -1 -24 -5t-23 -9q-14 -5 -29.5 -9.5t-31.5 -4.5q-17 0 -31.5 7.5t-25.5 19.5t-17.5 27.5t-6.5 32.5q0 18 8 31v-1q5 10 33.5 20t68.5 18.5t86.5 16t89.5 13t77 8.5t49 3
q14 0 26 -8.5t22 -21t17 -26.5l12 -24v-5z" />
    <glyph glyph-name="U" unicode="U" horiz-adv-x="541" 
d="M433 671q28 0 45 -14t26.5 -35t12.5 -45.5t3 -45.5q0 -41 -10.5 -94.5t-30 -110t-48 -111t-64.5 -97.5t-79.5 -69.5t-92.5 -26.5q-35 0 -57.5 6.5t-39 19t-30 30t-28.5 40.5l-16 24q-4 23 -5 46.5t-1 48.5q0 57 6 116.5t15 114.5q2 14 5.5 26.5t6.5 25.5q10 32 14 64
q2 15 4.5 29.5t8.5 26t17.5 18.5t30.5 7q13 0 27.5 -8.5t27.5 -21t21.5 -27t8.5 -27.5q0 -14 -9.5 -39t-17.5 -45q-2 -5 -4 -9t-4 -9q-8 -20 -14.5 -50t-11 -62.5t-7.5 -63.5t-3 -52q0 -9 0.5 -26.5t4 -35.5t10.5 -31t20 -13q25 0 49.5 17.5t47 45.5t42.5 62.5t35.5 69.5
t26 66t14.5 51q3 14 4 28.5t1 28.5t-0.5 28t-1.5 29q-1 14 -1.5 27.5t-0.5 27.5t8 26.5t20 17.5z" />
    <glyph glyph-name="V" unicode="V" horiz-adv-x="509" 
d="M418 674q12 0 25 -7t24 -17.5t18 -23.5t7 -26q0 -11 -21 -48t-49 -86q-23 -39 -48.5 -82.5t-47 -84t-35.5 -75t-14 -55.5l-8 -20q-8 -9 -11.5 -23.5t-7.5 -30.5q-3 -15 -7 -29.5t-10 -26t-15 -18.5t-23 -7q-20 0 -38 25t-34 65.5t-29.5 90t-24 98.5t-18.5 92t-12 69
q-1 5 -2 10.5t-2 9.5l-8 33q-4 17 -7.5 34.5t-3.5 34.5q0 24 8.5 40t35.5 16q31 0 50 -21.5t31 -55.5t17.5 -76t9.5 -83q4 -32 7.5 -64t11.5 -55q5 11 12.5 28t16.5 37q13 30 30 66.5t35 73.5t36.5 71.5t36.5 61.5t34.5 43t29.5 16z" />
    <glyph glyph-name="W" unicode="W" horiz-adv-x="721" 
d="M630 675q17 0 30.5 -7.5t23.5 -19.5t15 -27t5 -31q0 -25 -10.5 -62.5t-28 -81.5t-39 -91t-43 -91t-41.5 -81.5t-33 -61.5q-9 -16 -17.5 -29.5t-19 -24t-24.5 -16.5t-34 -6q-21 11 -32.5 39.5t-17.5 66t-7.5 80.5t-1.5 84q-1 38 -1 67.5t-5 50.5q-8 -14 -21 -39.5
t-28.5 -57t-31.5 -65t-29.5 -63t-23 -52.5t-11.5 -32l-3 -13q-2 -11 -5 -23t-7 -21q-8 -18 -24.5 -30.5t-34.5 -17.5l-8 4q-15 8 -27.5 44t-23 88.5t-19 116t-15 125.5t-11 117.5t-6.5 91.5q-1 8 -1.5 15t-0.5 13q11 14 26 25t32 11q30 0 45.5 -14.5t22 -36t7 -47.5t0.5 -48
v-19q0 -51 1 -97t6 -97q18 31 31.5 58.5t26.5 56.5q17 38 36 77t43 81v-1l13 24q8 15 16.5 30t17.5 23q16 12 39 12q21 0 41 -12q10 -8 18 -42.5t13.5 -80t9.5 -94.5t6 -85l2 -37q20 45 35 91t31 94l15 42q1 4 2.5 8t2.5 8q4 16 9.5 35t14.5 36t21 28.5t28 11.5z" />
    <glyph glyph-name="X" unicode="X" horiz-adv-x="529" 
d="M198 675q16 -3 32 -27t30 -55t25 -62t17 -49l26 32q16 20 36 43.5t39 44t36 34t28 13.5q17 -8 29 -22.5t12 -34.5q0 -24 -7.5 -46t-19 -42t-25.5 -38.5t-28 -35.5q-20 -25 -40 -52t-31 -57q6 -23 22.5 -56t34.5 -66q20 -36 36 -68.5t16 -53.5q0 -20 -9 -38.5t-32 -18.5
q-17 0 -32 12t-28.5 31t-26 42t-24.5 45q-10 21 -19.5 38.5t-19.5 28.5q-2 -4 -6.5 -9t-6.5 -8q-18 -23 -43 -55t-50.5 -61.5t-47 -50.5t-31.5 -21q-14 0 -27 7.5t-22.5 19.5t-15.5 26.5t-6 27.5t11.5 35t29.5 47.5t40 53.5t43 55q19 23 36 45.5t28 40.5l-8 21
q-10 25 -23.5 60.5t-26 70.5t-21.5 63t-9 38q0 13 6 25.5t15 22.5l23 11z" />
    <glyph glyph-name="Y" unicode="Y" horiz-adv-x="501" 
d="M402 670q15 0 28 -7t23 -18t17.5 -25t11.5 -28q-5 -28 -14 -39.5t-32 -16.5q-43 -36 -75 -73.5t-55 -78t-39 -85t-26 -93.5l-3 -19q-4 -23 -10 -51.5t-17.5 -54t-29 -42.5t-44.5 -17q-8 0 -12 1q-8 2 -12 2q-5 12 -9.5 27t-4.5 30q0 51 11 105.5t24 105.5q5 18 9.5 36.5
t8.5 35.5l-45 64v-1l-7 7q-11 11 -26 27t-29 34t-24 35.5t-10 30.5q0 23 12 40t35 17q19 0 37.5 -11t35 -26.5t30.5 -33.5t25 -32l4 -5v1q5 -8 11.5 -18t11.5 -11q12 14 24 30.5t25 33.5q15 21 31 43t33.5 40t36.5 29t39 11z" />
    <glyph glyph-name="Z" unicode="Z" 
d="M339 669q30 0 62 -6t58.5 -21t43.5 -40t17 -62q0 -29 -18 -60.5t-46.5 -64.5t-63.5 -66.5t-69 -64.5q-39 -36 -74 -70t-50 -58q39 0 80.5 11.5t77.5 25.5q35 13 71.5 24t71.5 11q23 0 35.5 -11.5t12.5 -36.5q0 -26 -18 -48t-47 -40t-65.5 -31.5t-72 -23t-67 -14
t-51.5 -4.5q-26 0 -55 9t-54 25.5t-41.5 40.5t-16.5 54t16 61.5t41.5 63t56.5 62t61 57.5q38 35 71 69t47 62q-54 -2 -102.5 -21t-93.5 -44l-6 -3h1q-12 -7 -26 -13.5t-26 -6.5q-17 0 -32 8t-26 21t-18 29t-7 32q0 19 19.5 37t50.5 34t68.5 29.5t73 23t65.5 15t45 5.5z" />
    <glyph glyph-name="D" unicode="D" horiz-adv-x="560" 
d="M278 536q-45 0 -66 -18t-28 -61q0 -2 -1 -6.5t-1 -7.5q-7 -67 -13.5 -135t-6.5 -134v-9q35 19 79.5 47t84.5 63t67 75.5t27 84.5q0 28 -13 47.5t-33.5 31.5t-45.5 17t-50 5zM247 676q58 0 111.5 -14.5t94 -44.5t64.5 -77t24 -112q0 -47 -23.5 -96.5t-62.5 -96
t-89.5 -87.5t-104 -72t-106.5 -49t-97 -18q-14 0 -27 15t-19 27q3 5 7.5 10.5t7.5 10.5q3 4 6.5 10.5t5.5 11.5q0 11 -0.5 23t-0.5 24q0 46 5 90.5t11 89.5t10.5 88t4.5 86l-1 1q-2 2 -2 4q-5 8 -11 22t-6 36q0 35 21.5 57.5t52.5 36t65 19t59 5.5z" />
    <glyph glyph-name="a" unicode="a" horiz-adv-x="572" 
d="M333 516q-2 0 -2 -2l-2 6zM331 514q-4 -4 -11.5 -17.5t-15.5 -30t-15.5 -33t-12.5 -26.5l-1 -2q20 1 41.5 4.5t41.5 8.5q-4 25 -11.5 48.5t-15.5 47.5zM332 673q20 0 38 -19t33 -47t27.5 -61t22.5 -60q5 -14 9 -26.5t7 -20.5q1 -5 11 -7t22 -4l20 -4t18.5 -6.5t14 -12
t5.5 -20.5q0 -29 -16.5 -41t-35.5 -20q-2 -3 -6 -3h-1q1 -19 4 -36.5t6 -36.5q3 -23 6.5 -47.5t3.5 -49.5q0 -22 -2 -36.5t-8 -26.5t-16 -23t-25 -26q-19 11 -29.5 19t-16 16.5t-7 19t-2.5 27.5l-4 29q-3 16 -5 32l-4 32l-6 46t-8 47q-16 -1 -43 -4t-54.5 -8.5t-51 -14
t-32.5 -20.5q-8 -10 -16.5 -32.5t-19.5 -48.5q-10 -27 -21.5 -55.5t-24.5 -52t-26.5 -38.5t-28.5 -15q-9 0 -18.5 6t-17.5 14.5t-13.5 18.5t-5.5 19q0 28 12.5 60t27.5 63q8 16 15 32t11 29l-2 7l1 -1q-9 13 -9 33q0 29 11.5 39.5t25.5 17.5q8 4 14.5 7.5t9.5 8.5
q14 26 25.5 52t22.5 53q20 48 42.5 95.5t60.5 88.5q9 4 23.5 8t25.5 4z" />
    <glyph glyph-name="b" unicode="b" horiz-adv-x="537" 
d="M141 220q0 -14 3 -27t7 -26t6 -24t2 -24q28 4 64.5 19.5t72 37t65 48t41.5 52.5q-5 2 -8.5 1.5t-8.5 -0.5h-5q-11 0 -33 -1.5t-48.5 -4t-54.5 -7t-51 -11t-37.5 -15t-14.5 -18.5zM347 562h-9l2 17l10 -10zM149 400q1 1 2.5 1.5t3.5 2.5q-1 -3 -1 -9zM240 533
q-24 -12 -39 -25t-24 -28t-14 -33.5t-8 -42.5q16 11 42.5 31t54 42.5t50.5 45t33 39.5h-2q-26 0 -49 -9t-44 -20zM335 678q19 0 41 -8t40.5 -22t31 -33.5t12.5 -41.5t-9 -42.5t-23.5 -40t-32 -37.5t-33.5 -34q-9 -10 -14 -14t-13 -12h21q31 0 60 -6.5t51 -22t35 -40.5
t13 -61q0 -28 -13 -49.5t-29 -40.5q-31 -36 -72.5 -66t-88.5 -51.5t-96.5 -33.5t-96.5 -12q-18 0 -36.5 4t-34 13.5t-25 25t-9.5 38.5l20 22l34 -1q-14 35 -23 69.5t-9 74.5q0 14 2 47.5t6 75.5t10 87.5t14 83t18.5 62t23.5 24.5q6 0 16 -3.5t16 -7.5q17 6 32.5 12t28.5 12
q14 6 27.5 11.5t28.5 9.5t33.5 6t42.5 2z" />
    <glyph glyph-name="c" unicode="c" horiz-adv-x="560" 
d="M364 670q28 0 57.5 -12t52.5 -32t38 -47t15 -58q0 -28 -10 -35.5t-34 -7.5q-14 0 -25 8t-25 18q-14 11 -30 20t-35 9q-63 0 -105.5 -27.5t-68.5 -71.5t-37 -98.5t-11 -107.5q0 -25 10 -41t26 -25t36.5 -12.5t42.5 -3.5q26 0 53.5 2.5t53.5 6.5t54 7t54 3q25 0 42.5 -15.5
t17.5 -41.5q0 -11 -2.5 -19.5t-10.5 -17.5l-27 -16h1q-19 -13 -47 -21.5t-58.5 -13t-60.5 -6t-52 -1.5q-61 0 -108 18t-79.5 52t-49 82t-16.5 108q0 77 21.5 148.5t64 127t106 88.5t146.5 33z" />
    <glyph glyph-name="d" unicode="d" horiz-adv-x="560" 
d="M277 533q-45 0 -65.5 -18t-27.5 -60q0 -3 -1 -7.5t-1 -7.5q-8 -66 -14 -133.5t-6 -133.5v-9q35 19 79.5 47t83.5 63t66 75t27 83q0 28 -13 47.5t-33 31.5t-45 17t-50 5zM247 672q58 0 111 -14t93 -44t64 -77t24 -112q0 -47 -23.5 -96t-62.5 -95t-89 -87t-103.5 -71.5
t-106 -48.5t-95.5 -18q-14 0 -27.5 14.5t-18.5 27.5q2 5 6.5 10.5t7.5 10.5q3 3 7 9.5t6 11.5q0 12 -0.5 23.5t-0.5 23.5q0 46 5 90.5t11 89.5q6 44 10 86.5t4 85.5l-1 1q-2 2 -2 4q-4 8 -10 22t-6 36q0 34 21.5 57t52 36t64.5 18.5t59 5.5z" />
    <glyph glyph-name="e" unicode="e" horiz-adv-x="567" 
d="M465 671q13 0 24.5 -2t20.5 -7.5t14.5 -15.5t5.5 -26q0 -18 -8 -29.5t-22.5 -18.5t-33.5 -12t-41 -9q-30 -6 -63.5 -15t-64.5 -26t-57.5 -46t-42.5 -74q-3 -15 -9 -29q24 4 49.5 10.5t49.5 14.5q16 5 31.5 9.5t31.5 8.5q20 -8 37.5 -22.5t26.5 -35.5q-3 -26 -25 -44.5
t-53 -31t-65.5 -21t-62.5 -14.5l-42 -10q0 -27 10 -44t26.5 -27.5t38 -14.5t46.5 -4q47 0 80.5 13t65.5 29q20 10 38.5 19t38.5 16q24 -10 31 -28t7 -41q0 -35 -30 -59t-71.5 -39t-84.5 -22t-69 -7q-96 0 -154 41t-86 134v-1q-3 8 -7.5 14t-10.5 12q-9 8 -16 20t-7 35
q0 17 4.5 24.5t15.5 17.5q8 7 14.5 20t12.5 29t10.5 33.5t9.5 33.5l10 37q0 1 -0.5 1t-0.5 1v-2q-5 11 -8 21.5t-3 24.5q0 10 8.5 26t20.5 31.5t25.5 27t24.5 11.5q9 0 19.5 3.5l19.5 6.5q2 3 4.5 3.5t5.5 1.5q4 0 5 1q117 47 243 47h12z" />
    <glyph glyph-name="f" unicode="f" horiz-adv-x="494" 
d="M353 666q18 0 38.5 -3t38.5 -11.5t30 -24t12 -39.5l-11 -22q-18 -11 -48 -16t-63 -10q-28 -4 -59 -9.5t-59 -14.5t-50.5 -23t-33.5 -35q-2 -4 -3.5 -13.5t-2 -21t-0.5 -22.5v-18q16 5 34.5 11.5t34.5 12.5q42 14 86 28t89 14q20 0 37.5 -13t17.5 -36q0 -13 -10.5 -24
t-25.5 -20t-32.5 -16t-31.5 -11l-21 -7q-28 -9 -55.5 -21t-49.5 -23t-44.5 -21.5t-36.5 -16.5q0 -15 0.5 -31.5t1.5 -32.5q1 -17 1.5 -33t0.5 -33q0 -9 -1.5 -24t-6 -28.5t-12.5 -23.5t-22 -10q-26 0 -40.5 22.5t-21 53.5t-8 61.5t-1.5 47.5v161q0 8 0.5 28.5t2.5 47.5
t5 55.5t9 52t14 38t19 13.5q7 0 13 -2l14 -3q23 0 50.5 9t57.5 20q35 14 71.5 25.5t71.5 11.5z" />
    <glyph glyph-name="g" unicode="g" 
d="M401 672q56 0 92 -20t59 -77l-11 -29l-33 -20q-7 1 -13 3q-5 2 -11 3t-10 3q-14 5 -28.5 8.5t-28.5 3.5q-24 0 -51 -6.5t-53.5 -17.5t-51 -24.5t-42.5 -28.5q-20 -17 -35 -40.5t-25 -50.5t-14.5 -55.5t-4.5 -53.5q0 -26 10.5 -46t28.5 -34.5t41 -22t47 -7.5q29 0 57 12
t45 37q-13 0 -38.5 7.5t-45.5 13.5l-13 4q-16 16 -27.5 34.5t-11.5 42.5q0 22 14 33.5t34 16.5t42.5 6t39.5 1h9q34 0 63 -3.5t50 -16.5t32.5 -37t11.5 -65q0 -33 -4.5 -64.5t-9.5 -63.5t-8.5 -63.5t-3.5 -62.5q0 -11 -1.5 -27.5t-7 -31.5t-15 -26t-24.5 -11q-21 0 -35 19.5
t-21.5 45.5t-11 53.5t-3.5 44.5q-26 -12 -51.5 -20.5t-54.5 -8.5q-51 0 -98 21.5t-82.5 57.5t-57 83.5t-21.5 98.5q0 85 28 155t79 120t121 78t154 28z" />
    <glyph glyph-name="h" unicode="h" horiz-adv-x="524" 
d="M112 667q18 0 34 -9t27 -23.5t17.5 -32t6.5 -35.5q0 -23 -2 -48t-5 -48q-2 -19 -4 -35.5t-3 -36.5q18 2 38 8t40 11t41 11t44 8q0 20 1 54t6 68t15.5 62.5t29.5 37.5q11 -4 25.5 -14t27 -23.5t21.5 -28t9 -27.5q0 -17 -1.5 -32.5t-3.5 -30.5q-2 -16 -3.5 -30.5
t-1.5 -29.5v-2q14 -8 23.5 -20.5t9.5 -29.5t-7 -26t-15 -16q-5 -5 -10.5 -9.5t-7.5 -10.5q-6 -17 -8 -44.5t-4 -60.5q-2 -35 -5 -71t-11 -66.5t-23 -52t-41 -26.5l-16 17q-10 8 -16 16.5t-6 28.5q0 59 2.5 115t5.5 116q-3 0 -6.5 -1t-6.5 -1q-36 -5 -77 -12.5t-75 -21.5h-1
l-10 -5q0 -13 -0.5 -34t-3.5 -45.5t-8 -49t-14 -44.5t-22.5 -32.5t-32.5 -12.5q-22 0 -34.5 16.5t-12.5 38.5q0 20 1 38t3 37q3 36 3 73q0 9 -1 18t-3 18q-3 19 -3 39q0 14 3 27t8 24q3 8 6 18t5 18q2 17 3 37t1 37q0 15 -0.5 29t-0.5 29q-1 16 -1.5 31t-0.5 31q0 26 11 46
t40 20z" />
    <glyph glyph-name="i" unicode="i" horiz-adv-x="269" 
d="M157 660q15 0 30.5 -7.5t28 -20t21 -28t8.5 -31.5q0 -7 -4 -23t-9.5 -35.5t-12.5 -40.5t-13 -38l-13 -37v1q-19 -62 -33 -128t-19 -129q-2 -33 -9 -48.5t-16 -26.5q-6 -8 -11.5 -17.5t-11.5 -28.5l-29 -1q-7 0 -10 1t-5 1.5t-5 -0.5q-17 23 -19.5 51.5t-2.5 52.5
q0 73 13 141t30 135q11 46 21 91t16 92q2 13 4.5 26.5t8 24t15.5 17t27 6.5z" />
    <glyph glyph-name="j" unicode="j" horiz-adv-x="520" 
d="M406 672q15 0 29.5 -8.5t26.5 -21.5t19 -28.5t7 -30.5q0 -22 -4 -48t-8 -49l-7 -36q-7 -43 -18 -91.5t-27.5 -96.5t-40 -92.5t-55.5 -78t-73.5 -54t-94.5 -20.5q-21 0 -46.5 6t-48 19t-37.5 32t-15 45q0 19 16.5 27t30.5 8q16 -13 34.5 -16.5t37.5 -3.5q42 0 75 20
t57.5 53t41.5 75t28 85.5t15.5 85.5t4.5 74q0 8 -6.5 8.5t-14.5 0.5h-5q-30 0 -62 -9t-64 -19q-29 -10 -56.5 -18t-53.5 -8q-15 0 -28.5 7t-23.5 19t-15.5 26.5t-5.5 29.5q0 25 15 46q6 6 32.5 13t64 14t81 13t83 11t70 8t41.5 3z" />
    <glyph glyph-name="k" unicode="k" horiz-adv-x="564" 
d="M142 669q22 0 38.5 -10.5t28 -26.5t17 -36.5t5.5 -39.5q0 -26 -5 -50.5t-10 -49.5q-4 -15 -7 -25t-5 -24q45 39 90.5 86t75.5 93q5 7 15 20t22 25.5t24 21.5t21 9q16 0 30 -9.5t24.5 -24t16.5 -31.5t6 -31q0 -13 -15 -34.5t-38 -48t-51 -54.5l-55 -55
q-27 -26 -47.5 -46.5t-29.5 -31.5q15 -13 39.5 -27.5t50.5 -29.5q29 -16 59 -33.5t54 -36t39.5 -37.5t15.5 -37q0 -23 -13.5 -38.5t-36.5 -15.5q-13 0 -38 10.5t-54.5 26t-60.5 33.5t-57 33q-12 8 -25 16t-25 14l1 -1q-13 5 -28 15.5t-28 19.5q-5 3 -6 4t-6 4v-11
q0 -20 -4 -53t-13.5 -64.5t-26 -54.5t-41.5 -23t-43 17.5t-18 43.5q0 53 9 108t20 109q4 18 7 35.5t6 34.5q8 51 15.5 104.5t10.5 104.5v6q1 11 2.5 25.5t5 28.5t10 25t17.5 15v-1q2 1 5.5 2t5.5 1z" />
    <glyph glyph-name="l" unicode="l" horiz-adv-x="464" 
d="M146 677q16 0 30 -9.5t23.5 -23.5t15 -30.5t5.5 -30.5q0 -12 -4 -46.5t-9 -73.5t-10 -74.5t-7 -51.5q0 -2 -4 -20.5t-7 -34.5q-7 -28 -13 -58.5t-7 -45.5q38 4 78.5 10.5t80.5 14.5l46 8l-1 -2q3 2 8.5 2.5t6.5 0.5q8 0 16.5 -0.5t17.5 -1.5q6 -1 12 -1.5t13 -0.5
q4 -8 7 -17.5t3 -17.5q0 -19 -23.5 -36t-58 -31.5t-75.5 -26t-75 -20.5q-27 -8 -49.5 -14t-33.5 -11v1q-11 -6 -22.5 -8.5t-21.5 -2.5q-18 0 -32 7.5t-23 20t-13.5 28.5t-4.5 33t6 33.5t14 32.5l10 25q6 16 12 47t10.5 68.5t8 79.5t6 81t3.5 72t1 53q0 8 1.5 11.5t3.5 8.5
l2 8q7 17 20 30.5t33 13.5z" />
    <glyph glyph-name="m" unicode="m" horiz-adv-x="601" 
d="M153 664q31 -8 49 -16.5t27 -22t11.5 -33.5t2.5 -51q0 -10 7 -33.5t17.5 -48t23 -43t23.5 -18.5q7 0 17 11.5t22 30t25.5 42.5t27.5 48q14 25 27.5 48.5t25.5 42t22 29.5t17 11q18 0 33 -8t26 -21.5t17 -30.5t6 -34q0 -25 -5.5 -50t-13.5 -50q-5 -17 -9 -33t-7 -31
q-13 -72 -23.5 -145t-12.5 -145q0 -15 -1 -37t-8 -34q-16 -25 -48 -25q-21 0 -32.5 19.5t-17 45.5t-6.5 53t-1 41q0 30 2.5 59t7.5 58q-14 -14 -31 -22t-38 -8q-19 0 -38 8.5t-36 21.5t-32.5 29t-26.5 31q-4 -17 -7.5 -45t-8.5 -57q-5 -32 -10 -68.5t-11 -68t-12 -55
t-11 -29.5q-12 -13 -21 -15t-24 -2q-14 0 -27.5 6t-24.5 16t-17.5 23.5t-6.5 28.5q0 17 5 38.5t11 43.5q4 12 7 23.5t5 21.5q14 77 26.5 160t12.5 160l-1 47q0 31 8.5 40.5t18.5 13.5q9 4 15 13l20 15z" />
    <glyph glyph-name="n" unicode="n" 
d="M467 674q13 0 26.5 -7.5t24.5 -18.5t18.5 -24.5t7.5 -26.5q0 -26 -11 -59t-20 -57q-5 -17 -13.5 -52t-16.5 -73q-11 -53 -24 -112t-30.5 -109t-38.5 -83t-48 -33q-39 0 -67.5 19.5t-49 49t-34.5 64.5t-24 67l-1 6v-12q-1 -26 -3.5 -58.5t-9 -62t-19 -49.5t-33.5 -20
q-39 0 -61 28t-22 66q0 51 10.5 104t23.5 102q12 51 23 101t11 99q0 6 -1 11.5t-2 11.5q-3 12 -3 25q0 15 6 31.5t16.5 30t25 22.5t30.5 9q29 0 45.5 -12t24.5 -31.5t10.5 -43t2.5 -45.5q0 -39 3.5 -85.5t11 -93.5t20.5 -92t33 -79q2 2 2.5 4t2.5 4q10 15 18 40.5t15.5 57
t14 68t12.5 72.5q6 34 12 68.5t13 64.5t14.5 53.5t15.5 36.5q16 23 38 23z" />
    <glyph glyph-name="o" unicode="o" horiz-adv-x="590" 
d="M340 479q-18 0 -34 12t-23 29q-29 -18 -55.5 -47t-46 -63.5t-31 -71.5t-11.5 -71q0 -24 8.5 -48t23.5 -43.5t36.5 -31.5t47.5 -12q15 0 28.5 6.5t27.5 15.5q10 7 20.5 13t21.5 8l-1 -1q31 27 50 52.5t29 53t13 59t3 70.5v19.5t-2.5 27.5t-7 24.5t-13.5 10.5t-19 -2
t-21 -4t-21.5 -4t-22.5 -2zM302 671q37 0 57 -10t37 -23q9 -7 20 -13.5t25 -11.5q39 -15 63 -39t36.5 -54.5t16.5 -65.5t4 -73q0 -46 -7 -92.5t-24.5 -88.5t-46 -77.5t-71.5 -58.5h1l-32 -20q-26 -17 -52 -28.5t-59 -11.5q-58 0 -104 25.5t-78.5 67t-49.5 94t-17 105.5
q0 54 17 109t47.5 103.5t72 87.5t90.5 63q13 5 26 8.5t28 3.5z" />
    <glyph glyph-name="p" unicode="p" horiz-adv-x="535" 
d="M291 540q-30 0 -50.5 -11t-33 -29t-18.5 -41t-8 -48q18 6 51.5 20.5t67.5 31.5t59 34.5t25 31.5q0 4 -12.5 6t-28.5 3t-31.5 1.5t-20.5 0.5zM315 676q33 0 68.5 -11t65 -31t49 -49.5t19.5 -66.5q0 -38 -18 -69t-47 -56t-66.5 -43.5t-76.5 -31.5t-76.5 -20t-67.5 -9
l-6 -56q-3 -32 -8 -69t-13 -69t-21.5 -53.5t-33.5 -21.5t-33 9.5t-20.5 24t-10.5 32t-3 34.5q0 53 8 103.5t18 101.5q8 42 14.5 83t9.5 82q0 4 0.5 7.5t0.5 8.5q1 18 3.5 39.5t8.5 42t17 36t29 21.5l36 9q38 9 74.5 15.5t79.5 6.5z" />
    <glyph glyph-name="q" unicode="q" horiz-adv-x="544" 
d="M363 513v9l8 1l1 -8zM239 500q-3 4 -4 7.5t-2 7.5l6 1q0 -1 1 -1.5t1 -1.5l-2 5l20 -6zM293 177l-6 -34l-13 20zM415 371q0 11 -3.5 32.5t-10 44t-16 41t-20.5 23.5l-12 -5q-6 -2 -12 -3.5t-11 -3.5l-11 -4q-11 -5 -24 -9.5t-25 -4.5q-8 0 -17 4.5t-14 12.5
q-5 -4 -8 -7.5t-6 -7.5q-13 -17 -21 -23v1q-39 -44 -55 -87t-16 -102q0 -15 3.5 -39t11.5 -46.5t22 -39t34 -16.5q16 0 36.5 9.5t33.5 21.5q-8 15 -15.5 35t-7.5 37q0 22 10.5 37.5t33.5 15.5q26 0 44 -16t27 -41q4 6 7.5 11t6.5 11q9 15 15.5 26.5t11 24.5t6.5 28.5t2 38.5
zM297 659q45 0 85.5 -32.5t71.5 -80t49 -99.5t18 -91q0 -35 -6.5 -62.5t-18 -51t-27.5 -45t-34 -45.5l-23 -30q2 -8 13 -20t25 -26q20 -20 39 -43t19 -46q0 -9 -3.5 -19.5t-8.5 -19.5l-20 -1q-17 0 -34 9.5t-33.5 23.5t-31.5 30.5t-27 31.5q-5 5 -8 9.5t-8 9.5l-23 -11
q-23 -14 -43 -21t-54 -7q-44 0 -79.5 25.5t-60.5 64t-38.5 83.5t-13.5 84q0 29 1.5 56.5t6.5 54.5q8 37 36 83.5t66.5 87.5t82 69.5t82.5 28.5z" />
    <glyph glyph-name="r" unicode="r" horiz-adv-x="527" 
d="M186 307l-6 -2l-6 19l4 5l3 -4q2 0 3 -1.5t3 -3.5zM316 515q-21 0 -37 -14t-28 -34t-20.5 -41.5t-14.5 -37.5l-7 -17l-10.5 -24.5t-9.5 -24.5q21 4 52 20.5t60 38t49.5 44t20.5 40.5q0 20 -17.5 35t-37.5 15zM283 667q37 0 75.5 -20t70 -52t51.5 -71t20 -76
q0 -11 -2.5 -20t-5.5 -17q-15 -40 -30.5 -66t-34.5 -45t-43 -34.5t-57 -34.5l-5 -3q9 -5 23.5 -11.5t32.5 -14.5q28 -13 59.5 -28.5t58 -32.5t44 -34t17.5 -33q0 -24 -20 -36.5t-40 -12.5q-29 0 -75.5 16t-95.5 39.5t-94 49t-72 43.5q0 -16 -2.5 -41t-10 -49t-20.5 -41
t-35 -17q-32 0 -49.5 18t-17.5 51t6.5 76t16.5 88.5t22 91t22 84.5q2 11 5.5 22t5.5 22q1 7 6.5 23t12.5 36t15.5 41t17.5 38.5t17.5 29t14.5 11.5l18 -3q3 -2 7.5 -2.5t7.5 -0.5l11 3q12 5 25 9t27 4z" />
    <glyph glyph-name="s" unicode="s" horiz-adv-x="484" 
d="M310 673q19 0 41 -7t41.5 -20t32.5 -31.5t13 -40.5q0 -12 -4.5 -25t-12.5 -24q-15 -10 -30 -10q-16 0 -27 5t-20 10q-4 3 -9.5 5.5t-10.5 2.5q-8 0 -24 -4.5t-33 -11.5t-29.5 -16t-12.5 -17q0 -7 16 -15t42 -18q27 -11 59 -26t59 -37.5t45.5 -54t18.5 -76.5
q0 -52 -21.5 -96.5t-57 -76.5t-82 -50.5t-96.5 -18.5q-24 0 -58 10t-65 28t-53 43t-22 55q0 23 11 37.5t36 14.5q14 -7 25.5 -16t22.5 -18q17 -13 35.5 -24.5t46.5 -11.5q22 0 49 9.5t50 26t39 38.5t16 46q0 12 -8 23t-21 20.5t-30 18.5t-36 18q-26 13 -53 28t-48.5 34.5
t-35.5 45t-14 58.5q0 16 2.5 32t10.5 30t34.5 32.5t58.5 35t62.5 28t46.5 11.5z" />
    <glyph glyph-name="t" unicode="t" horiz-adv-x="514" 
d="M499 583q-12 -19 -29 -29.5t-36.5 -15t-40 -5t-39.5 -0.5h-4q-8 1 -19 1t-11 -4q0 -29 1 -57t3 -57q2 -27 3 -57t1 -56q0 -61 -10 -128t-35 -120q-3 -6 -11 -13.5t-17.5 -15t-19 -12.5t-15.5 -5q-14 0 -21 5t-11 13.5t-4.5 18.5t-0.5 21q0 34 3.5 67t8.5 66t8 66t3 66
q0 9 0.5 19t0.5 20q0 11 0.5 22.5t0.5 22.5q0 22 -1.5 44.5t-4.5 40.5q-12 -1 -24 -5t-24 -9q-13 -5 -28.5 -9.5t-30.5 -4.5q-17 0 -31.5 7.5t-26 19.5t-18 27.5t-6.5 32.5t8 30v-1q6 10 34 20t67.5 18.5t86 16t89.5 13t76.5 8.5t48.5 3q14 0 26 -8.5t21.5 -21t16.5 -26.5
l12 -24v-5z" />
    <glyph glyph-name="u" unicode="u" horiz-adv-x="541" 
d="M431 667q28 0 45 -14t26.5 -35t12.5 -45.5t3 -44.5q0 -41 -10 -94t-29.5 -109t-48 -110.5t-64.5 -97.5t-79 -69t-92 -26q-34 0 -57 6.5t-39.5 19t-29.5 30t-28 40.5l-17 23q-4 23 -5 46.5t-1 47.5q0 57 6 116.5t16 114.5q2 13 5.5 25.5t6.5 25.5q5 15 8 31t5 32
q2 15 4.5 29.5t8.5 26t17.5 19t30.5 7.5q13 0 27.5 -8.5t27 -21t21 -27.5t8.5 -28q0 -14 -9 -38.5t-17 -44.5q-2 -5 -4 -9t-4 -9q-8 -20 -14.5 -49.5t-11 -62t-7.5 -63t-3 -51.5q0 -9 0.5 -27t4 -35.5t10.5 -30.5t20 -13q24 0 48.5 17.5t47 45t42 62t35 69t26.5 65.5t15 52
q3 14 4 28t1 28t-0.5 28t-1.5 28t-1.5 28t-0.5 27q0 14 8 26.5t19 17.5z" />
    <glyph glyph-name="v" unicode="v" horiz-adv-x="509" 
d="M416 670q12 0 25 -7t24 -17.5t18 -23.5t7 -25t-20.5 -48.5t-49.5 -84.5q-23 -39 -48.5 -82.5t-46.5 -84t-35 -74.5t-14 -55l-8 -20q-8 -9 -11.5 -23t-6.5 -31q-3 -14 -7 -28.5t-10 -26t-15.5 -18.5t-22.5 -7q-20 0 -38 25t-34 65t-29 89t-24 98t-18.5 91.5t-11.5 68.5
q-1 6 -2 11.5t-2 8.5l-8 33q-5 17 -8.5 34.5t-3.5 33.5q0 25 9 40.5t35 15.5q31 0 50 -21.5t30.5 -55t17.5 -75.5t10 -82q4 -32 7.5 -64t11.5 -55q5 11 12 28t16 37q13 30 29.5 66.5t34.5 73t36.5 71t36.5 61t34.5 42.5t29.5 16z" />
    <glyph glyph-name="w" unicode="w" horiz-adv-x="721" 
d="M627 671q17 0 30.5 -7.5t23 -19.5t14.5 -27t5 -31q0 -24 -10.5 -61.5t-27.5 -81t-38.5 -90.5t-43 -90.5t-41 -80.5t-32.5 -61q-9 -16 -17.5 -30t-19 -24t-24.5 -16t-34 -6q-21 11 -32.5 39t-17 65.5t-7 80.5t-1.5 84q-1 37 -1 66.5t-5 49.5q-8 -14 -21 -39.5t-28.5 -56.5
t-31.5 -64.5t-29.5 -63t-22.5 -52t-11 -31.5l-3 -12q-2 -12 -5 -24t-7 -20q-8 -18 -24 -30.5t-35 -17.5l-8 4q-15 8 -27.5 44t-23 88.5t-18.5 115.5t-14.5 124.5t-11 116.5t-6.5 91q-1 8 -1.5 14.5t-0.5 12.5q11 14 26 25t32 11q30 0 45.5 -14.5t22 -36t7 -47.5t0.5 -48v-18
q0 -51 1 -96.5t5 -96.5q18 31 31.5 58.5t25.5 55.5q18 38 36.5 77t43.5 80v-1l12 25q8 14 16.5 29t17.5 23t18.5 10t20.5 2t20.5 -2.5t19.5 -9.5q11 -8 19 -42.5t13.5 -79.5t9 -93.5t5.5 -84.5l2 -36q21 44 35.5 89.5t30.5 93.5l15 42l2 8l2 8q4 16 10 35t15 35.5t20.5 28
t27.5 11.5z" />
    <glyph glyph-name="x" unicode="x" horiz-adv-x="529" 
d="M198 671q16 -3 32 -26.5t30 -54.5t24.5 -62t16.5 -49l26 32q16 20 35.5 43.5t38.5 43.5t36 33.5t28 13.5q17 -8 28.5 -22.5t11.5 -34.5q0 -24 -7 -45.5t-18.5 -41.5t-25.5 -38.5t-28 -35.5q-20 -24 -40 -51t-31 -56q6 -24 23 -57t34 -65q20 -36 36 -68.5t16 -53.5
q0 -20 -9 -38t-32 -18q-17 0 -31.5 12t-28 30.5t-26 41.5t-24.5 45q-10 21 -19.5 38.5t-19.5 28.5q-2 -4 -6.5 -9t-6.5 -8q-18 -23 -43 -55t-50 -61.5t-46.5 -50t-31.5 -20.5q-14 0 -26.5 7.5t-22.5 19.5t-16 26t-6 27t11.5 35t29.5 47.5t40 53.5t43 54q19 24 35.5 46
t27.5 40l-7 21q-10 25 -23.5 60.5t-26 70t-21.5 62t-9 37.5q0 13 6 25.5t15 22.5l22 11z" />
    <glyph glyph-name="y" unicode="y" horiz-adv-x="501" 
d="M400 666q16 0 29 -7t23 -18t17 -25t11 -28q-5 -27 -14 -38.5t-32 -16.5q-85 -71 -129.5 -150.5t-63.5 -177.5l-3 -19q-4 -23 -10.5 -51.5t-17.5 -53.5t-28.5 -42t-44.5 -17q-8 0 -12 1q-8 2 -12 2q-5 12 -9.5 27t-4.5 29q0 51 11 105t24 105q5 19 9.5 37t7.5 35l-44 63
v-1l-7 7q-11 11 -26 27.5t-29 34t-24 35t-10 30.5q0 22 12 39.5t35 17.5q19 0 37.5 -11t35 -26.5t30.5 -33.5t25 -32l4 -5v1q5 -8 11 -18t11 -11q13 14 25 30t24 34q15 21 31 43t33 39.5t36 28.5t39 11z" />
    <glyph glyph-name="z" unicode="z" 
d="M338 666q29 0 60.5 -6.5t58 -21.5t43.5 -39.5t17 -61.5q0 -28 -17.5 -60t-45.5 -65t-63 -66t-69 -64q-39 -36 -74 -69.5t-49 -57.5q39 0 80 11.5t77 25.5q35 13 71 23.5t71 10.5q23 0 35.5 -11t12.5 -36q0 -26 -18 -48t-47 -39.5t-65 -31.5t-71.5 -23t-67 -13.5
t-51.5 -4.5q-25 0 -54 8.5t-53.5 25t-41 40.5t-16.5 54t16 61.5t41 63t55.5 61.5t60.5 57q38 35 71 68.5t47 60.5q-54 -1 -102 -20t-93 -43l-6 -3h1q-12 -8 -25.5 -14.5t-26.5 -6.5q-16 0 -31 8t-26 21t-18 29t-7 32q0 19 19.5 37t50 34t67.5 29.5t72.5 23t65.5 15t45 5.5z
" />
    <glyph glyph-name="B" unicode="B" horiz-adv-x="537" 
d="M141 221q0 -14 3 -27t7 -26t6.5 -24t2.5 -25q28 5 65 20.5t72.5 37.5t64.5 48t41 53q-5 2 -8.5 1.5t-8.5 -0.5h-5q-11 0 -33 -1.5t-48.5 -4.5t-54.5 -7.5t-51 -11t-38 -15t-15 -18.5zM348 565h-9l2 18l10 -10zM149 402q1 1 2.5 1.5t3.5 2.5q-1 -3 -1 -9zM240 536
q-24 -12 -39 -25t-24 -28t-14 -34t-8 -43q16 12 42.5 32t54 42.5t51 45t33.5 39.5h-2q-26 0 -49 -9t-45 -20zM336 682q19 0 41 -8t41 -22t31.5 -33.5t12.5 -41.5t-9 -43t-23.5 -40.5t-32 -38t-33.5 -34.5q-10 -10 -15 -14t-13 -12h22q31 0 60 -6.5t51.5 -22t35.5 -40.5
t13 -62q0 -27 -13.5 -49t-29.5 -40q-31 -37 -73 -67.5t-89.5 -52t-97 -33.5t-96.5 -12q-18 0 -36.5 4t-34 13.5t-25 25.5t-9.5 39l19 21l35 -1q-14 35 -23.5 70t-9.5 75q0 14 2 48t6 76.5t10 88t14.5 83.5t19 62.5t23.5 24.5q6 0 16 -3.5t16 -7.5q34 11 61 24
q28 12 56.5 20.5t76.5 8.5z" />
    <glyph glyph-name="C" unicode="C" horiz-adv-x="560" 
d="M366 674q28 0 57.5 -12t52.5 -32t38 -47.5t15 -57.5q0 -29 -9.5 -36.5t-34.5 -7.5q-14 0 -25 8t-25 18q-14 11 -30.5 20t-34.5 9q-64 0 -107 -28t-69 -72t-37 -98.5t-11 -107.5q0 -25 10 -41t26 -25.5t36.5 -13t42.5 -3.5q27 0 54.5 2.5t54.5 6.5q26 4 54 7t54 3
q25 0 42.5 -16t17.5 -42q0 -10 -2.5 -18.5t-9.5 -18.5l-28 -16h1q-19 -13 -47 -21.5t-59 -13t-61 -6t-52 -1.5q-123 0 -188.5 70t-65.5 192q0 77 21.5 149t64.5 127.5t106.5 89t147.5 33.5z" />
    <glyph glyph-name="A" unicode="A" horiz-adv-x="572" 
d="M334 519q-2 0 -2 -2l-2 7zM332 517q-4 -4 -11.5 -17.5t-15.5 -30t-15.5 -33.5t-12.5 -27l-1 -2q20 1 41.5 4.5t41.5 8.5q-4 26 -11.5 49.5t-15.5 47.5zM333 677q21 0 39 -19t33 -47.5t27.5 -61.5t22.5 -60q5 -14 8.5 -26.5t7.5 -20.5q1 -5 11 -7t22 -4l20 -4t18.5 -6.5
t14 -12.5t5.5 -21q0 -29 -16.5 -41t-35.5 -20q-2 -3 -6 -3h-1q1 -19 4 -36.5t6 -37.5q4 -23 7.5 -47.5t3.5 -49.5q0 -22 -2.5 -36.5t-8.5 -26.5t-16 -23.5t-25 -26.5q-19 11 -29.5 19t-16 16.5t-7.5 19.5t-3 27l-4 30q-3 16 -5 32l-4 32q-3 23 -5.5 46.5t-7.5 47.5
q-16 -1 -43.5 -4t-55.5 -8.5t-51.5 -14.5t-32.5 -21q-8 -10 -16.5 -32.5t-18.5 -48.5q-11 -27 -22.5 -55.5t-24.5 -52.5t-27 -39t-29 -15q-9 0 -18.5 6t-17.5 14.5t-13.5 19t-5.5 19.5q0 27 13 59.5t27 63.5q8 16 15.5 32.5t11.5 28.5l-2 7l1 -1q-10 17 -10 34q0 29 12 39.5
t26 17.5q8 4 14.5 7.5t9.5 9.5q14 25 25.5 51.5t22.5 53.5q20 48 43 95.5t61 89.5q9 3 23.5 7.5t25.5 4.5z" />
    </font>
</defs>
</svg>
